<svg xmlns="http://www.w3.org/2000/svg" width="512" height="512" viewBox="0 0 512 512">
  <defs>
    <linearGradient id="fond" x1="0" y1="0" x2="1" y2="1">
      <stop offset="0" stop-color="#4338ca" />
      <stop offset="1" stop-color="#241f5c" />
    </linearGradient>
  </defs>
  <rect width="512" height="512" rx="112" fill="url(#fond)" />
  <g transform="translate(96 96) scale(13.333)">
    <path
      fill="#ffffff"
      d="M19 10h-1.26A6.98 6.98 0 0 0 12 6c-1.5 0-2.85.5-4 1.35V6l-3 2v3.5L3 13v2l2-1v2l2 2h2v-1h4v1h2l1-1v-2.29c1.2-.94 2-2.4 2-4.06V10h1c.55 0 1-.45 1-1s-.45-1-1-1zM10 11a1 1 0 1 1 0-2 1 1 0 0 1 0 2z"
    />
  </g>
</svg>
